<svg id="Layer_1" data-name="Layer 1" xmlns="http://www.w3.org/2000/svg" viewBox="0 0 32 32">
	<path id="Combined-Shape" d="M13.5007,2.02422v2L2.015,4.024V28H29.994l-.0043-10.09035,2-.0009.00545,12.09145H.0157V2.02422ZM25.63881.61075,31.28273,6.256l-2.697,2.69575.00132.00164-.58332.58136-.8311.83138-.0019-.00138-11.24,11.205-1.12894,1.13012L7.21613,24.65806,9.17561,17.0726l2.06591-2.06591L21.52726,4.72079ZM11.241,17.834l-.266.266L10,21.873l3.773-.974.267-.267Zm11.7-11.699L12.655,16.42l2.8007,2.79873L25.756,8.951Zm2.697-2.697L24.356,4.721l2.816,2.816,1.282-1.282Z"/>
</svg>