<?xml version="1.0" encoding="UTF-8"?>
<svg id="RGB_Logo_Sort" data-name="RGB Logo Sort" xmlns="http://www.w3.org/2000/svg" viewBox="0 0 300 154">
  <defs>
    <style>
      .cls-1 {
        stroke-width: 0px;
      }
    </style>
  </defs>
  <path class="cls-1" d="m102.3,34.2l-2.1-1.3c-3.2-2.1-6.6-3.9-10.2-5.4h0c-1.5-.6-3-1.2-4.5-1.7-3.6-1.2-7.4-2.2-11.1-2.8-1.6-.2-3.2-.4-4.9-.6-3.8-.3-7.7-.3-11.5,0-1.6.1-3.3.3-4.9.6-3.8.6-7.5,1.5-11.2,2.8-1.5.5-3,1.1-4.5,1.7h0c-3.5,1.5-6.9,3.3-10.2,5.4l-2.1,1.3L14.8,14.5l1.8-1.1c3.5-2.2,7.1-4.1,10.8-5.7l1.9-.9,3.7,7.1c1.1-.4,2.1-.8,3.2-1.2l-1.9-7.8,2-.7c3.9-1.2,7.8-2.2,11.8-2.9l2.1-.4,1.9,7.8.6-.1c.9-.1,1.9-.2,2.8-.3V.3l2.1-.1c2-.1,4.1-.2,6.1-.2s4.1.1,6.1.2l2.1.1v8c1.1.1,2.2.2,3.4.4l1.9-7.8,2.1.4c4,.7,8,1.7,11.8,2.9l2,.7-1.9,7.8c1.1.4,2.1.8,3.2,1.2l3.7-7.1,1.9.9c3.7,1.7,7.3,3.6,10.8,5.7l1.8,1.1-10.3,19.7ZM20.8,16.2l6.1,11.6c2.8-1.7,5.7-3.1,8.7-4.4h.1c1.6-.7,3.2-1.3,4.8-1.8,3.9-1.3,7.9-2.4,11.9-3,1.7-.3,3.4-.5,5.2-.6,4.1-.3,8.2-.3,12.3,0,1.7.2,3.5.4,5.2.6,4,.6,8,1.6,11.9,2.9,1.6.6,3.2,1.2,4.8,1.8h0c3,1.3,5.9,2.8,8.8,4.4l6.1-11.6c-2.1-1.2-4.3-2.4-6.5-3.4l-3.7,7-1.9-.8-.8-.3c-1.9-.8-3.9-1.6-5.9-2.2l-2-.7,1.9-7.7c-2.4-.7-4.7-1.3-7.1-1.8l-1.9,7.7-2.1-.3c-2.4-.4-4.8-.7-7.1-.9l-2.1-.2v-7.9c-2.4-.1-4.9-.1-7.3,0v7.9l-2.1.2c-1.6.1-3.1.3-4.6.5-.8.1-1.7.2-2.5.4l-2.1.3-1.9-7.7c-2.4.5-4.8,1.1-7.1,1.8l1.9,7.7-2,.7c-2,.7-4,1.4-5.9,2.2l-.8.3-1.9.8-3.7-7c-2.4,1-4.6,2.2-6.7,3.5h0Z"/>
  <path class="cls-1" d="m63.7,154C28.5,154,0,125.5,0,90.4S28.5,26.7,63.6,26.7s63.7,28.5,63.7,63.6c0,16.9-6.7,33.1-18.6,45.1-11.9,11.9-28.2,18.6-45,18.6Zm0-122.6c-32.6,0-59,26.4-59,58.9s26.4,59,58.9,59,59-26.4,59-58.9c0-15.6-6.2-30.6-17.3-41.7-11-11.1-26-17.4-41.6-17.3h0Z"/>
  <path class="cls-1" d="m51.4,72.2c-5-6.7-3.6-16.3,3.1-21.3,6.7-5,16.3-3.6,21.3,3.1,4,5.4,4,12.8,0,18.2l3.4,2.5c2.5-3.3,3.9-7.4,3.9-11.6,0-10.7-8.7-19.4-19.4-19.4s-19.4,8.7-19.4,19.4c0,4.2,1.4,8.3,3.9,11.6l3.2-2.5Z"/>
  <path class="cls-1" d="m63.6,76.8c4.2,0,7.6-3.4,7.6-7.6v-.8h2.5v-4.8c0-5.6-4.5-10.1-10.1-10.1s-10.1,4.5-10.1,10.1v4.8h2.5v.8c0,4.2,3.4,7.6,7.6,7.6Zm-5.9-13.1c0-3.3,2.6-5.9,5.9-5.9s5.9,2.6,5.9,5.9h0v4.8h-1.8v.8c.1,2.3-1.6,4.2-3.9,4.3-2.3.1-4.2-1.6-4.3-3.9v-1.2h-1.8v-4.8Z"/>
  <rect class="cls-1" x="20.2" y="93.2" width="5.8" height="5.9"/>
  <path class="cls-1" d="m110.7,88.7v3.1h3l-8.1,8.1v-14.2l2.1,2.1,2.2-2.2-5.9-5.9-5.9,5.9,2.2,2.2,2.1-2.1v14.1l-8.1-8.1h2.9v-3.1h-8.3v8.4h3.1v-3l6.3,6.4h-12.8l-1.3-1.2-1.1-10.4c-.1-.6-.7-5.9-5.1-8.2h-.1l-4.5-1.8-.7-.3-.7.2c-2.8.7-5.6,1-8.4.9-2.8.1-5.7-.2-8.4-.9l-.7-.2-5.2,2h-.1c-4.4,2.3-5.1,7.6-5.1,8.2l-1.2,10.8-1,.8h-4.4c.4-1.4.6-2.8.6-4.2,0-8.3-6.8-15-15.1-14.9-8.3,0-15,6.8-14.9,15.1,0,7.4,5.4,13.6,12.7,14.8h.2c.4.1.8.1,1.2.1l19.5,2c-.7,6.6-2,13.1-3.9,19.5l2,.7,2,.6c2-6.7,3.4-13.6,4.1-20.5l4.4-3.7-.7,27.2,1.8.3c8.2,1.4,16.6,1.4,24.9,0l1.8-.3-.7-27.1,4.4,3.7c.7,6.9,2.1,13.8,4.1,20.5l4-1.3c-1.9-6.4-3.2-12.9-3.9-19.5l19.6-1.8v-6.8l10.4-10.4v3h3.1v-8.3l-8.4-.3Zm-47.1-4.8c3,.1,6-.3,9-.9l3.6,1.4c2.4,1.3,2.8,4.8,2.8,4.8l.9,8.2h-5.1c-2,0-4.1-.5-5.8-1.6-1.3-1-2.5-2.1-3.5-3.4l-7.2-8.8c1.8.2,3.6.3,5.3.3h0Zm-40.5,23.1h-.5l-1.1-.1c-5.9-.9-10-6.5-9-12.4.9-5.9,6.5-10,12.4-9,5.9.9,10,6.5,9,12.4-.9,5.2-5.5,9.1-10.8,9.1h0Zm27.3-2.9l-6,5.1-12-1.2c1.2-1,2.3-2.1,3.2-3.4h7.9l7-5.9-.1,5.4Zm.3-11h0l-3.1,2.6.7-6.4v-.1s.3-3.5,2.8-4.8l2-.8,3.6,4.4-6,5.1Zm13,41c-3.3,0-6.6-.2-9.8-.7l.2-8.9h0l.7-29.4,4.5-3.8,3,3.7c1.3,1.7,2.9,3.2,4.6,4.4,1.8,1.1,3.9,1.8,6,2.1l.8,31.9c-3.3.4-6.7.6-10,.7h0Zm37.7-26.6l-18.1,1.7-9-7.6h6.6l3.4,3h17.2l-.1,2.9Z"/>
  <path class="cls-1" d="m162.9,87.5c0-15.5,9.8-25,21.8-25s21.8,9.5,21.8,25-9.8,25.7-21.8,25.7-21.8-9.6-21.8-25.7Zm37.4,0c0-13.4-6.9-19.4-15.6-19.4s-15.6,6-15.6,19.4,7.2,20.1,15.6,20.1,15.6-6.7,15.6-20.1Z"/>
  <path class="cls-1" d="m227.2,76.5c6.6,0,11.4,2.9,13.2,7.6l-4.4,2.2c-1.5-3.1-4.7-4.9-9-4.9s-7.6,1.8-7.6,4.8c0,2.6,1.7,4.1,5.5,5l5.1,1c7.7,1.5,11.4,5,11.4,10.3,0,6.4-5.6,10.7-13.9,10.7-7.2,0-12.4-2.8-14.9-8l4.4-2.3c1.8,3.5,5.3,5.5,10.3,5.5s8.5-2.2,8.5-5.6c0-2.9-1.7-4.6-5.8-5.4l-6.1-1.2c-6.6-1.3-10.1-4.7-10.1-9.6.1-5.8,5.6-10.1,13.4-10.1Z"/>
  <path class="cls-1" d="m259.1,113c-6,0-8.9-3.7-8.9-9.4v-40.4h5.8v40.2c0,3.1,1.7,4.6,4.5,4.6.7,0,1.4-.1,2.1-.3v5c-1.1.1-2.3.3-3.5.3Z"/>
  <path class="cls-1" d="m267.5,94.8c0-11.1,7.2-18.3,16.3-18.3s16.2,7.2,16.2,18.3-7.3,18.5-16.2,18.5-16.3-7.3-16.3-18.5Zm26.5,0c0-9-4.7-13.3-10.2-13.3s-10.3,4.2-10.3,13.3,4.6,13.5,10.3,13.5,10.2-4.5,10.2-13.5Z"/>
</svg>